<svg xmlns="http://www.w3.org/2000/svg" width="24" height="23" viewBox="0 0 24 23">
  <defs>
    <style>
      .cls-1 {
        fill: #fff;
        fill-rule: evenodd;
      }
    </style>
  </defs>
  <path id="首页" class="cls-1" d="M22.857,104.585a0.845,0.845,0,0,1-.787-0.521,0.8,0.8,0,0,1,.216-0.9l11.183-9.97a0.865,0.865,0,0,1,1.145,0l11.118,9.971a0.8,0.8,0,0,1,.047,1.157,0.863,0.863,0,0,1-1.193.045L34.038,94.909l-10.609,9.46a0.857,0.857,0,0,1-.571.216h0ZM41.664,116H26.415a1.943,1.943,0,0,1-1.97-1.91v-8.879a0.845,0.845,0,0,1,1.688,0v8.879a0.269,0.269,0,0,0,.082.193,0.287,0.287,0,0,0,.2.08H41.664a0.278,0.278,0,0,0,.282-0.273v-8.879a0.845,0.845,0,0,1,1.688,0v8.879a1.943,1.943,0,0,1-1.97,1.91h0ZM36.1,116H31.979a1.943,1.943,0,0,1-1.97-1.91v-5.563a1.943,1.943,0,0,1,1.97-1.911H36.1a1.943,1.943,0,0,1,1.97,1.911v5.562A1.943,1.943,0,0,1,36.1,116h0Zm-4.121-7.746a0.277,0.277,0,0,0-.281.273v5.562a0.277,0.277,0,0,0,.281.273H36.1a0.278,0.278,0,0,0,.281-0.273v-5.562a0.278,0.278,0,0,0-.281-0.273H31.979Zm0,0" transform="translate(-22 -93)"/>
</svg>
