<svg xmlns="http://www.w3.org/2000/svg" width="24.094" height="20.406" viewBox="0 0 24.094 20.406">
  <defs>
    <style>
      .cls-1 {
        fill: #fff;
        fill-rule: evenodd;
      }
    </style>
  </defs>
  <path id="设备管理" class="cls-1" d="M40.935,222.129H26.472a4.877,4.877,0,0,0-3.409,1.38,4.635,4.635,0,0,0,0,6.661,4.877,4.877,0,0,0,3.409,1.38H40.935a4.877,4.877,0,0,0,3.409-1.38,4.635,4.635,0,0,0,0-6.662,4.881,4.881,0,0,0-3.409-1.379h0Zm3.214,4.71a3.105,3.105,0,0,1-.941,2.221,3.253,3.253,0,0,1-2.273.92H26.472a3.178,3.178,0,0,1-3.214-3.141,3.1,3.1,0,0,1,.941-2.22,3.253,3.253,0,0,1,2.273-.92H40.935a3.253,3.253,0,0,1,2.273.92,3.1,3.1,0,0,1,.941,2.22h0Zm-14.222-.785H26.15a0.785,0.785,0,1,0,0,1.57h3.777a0.785,0.785,0,1,0,0-1.57h0Zm11.008,7.066H26.472a4.766,4.766,0,0,0-4.821,4.71,4.654,4.654,0,0,0,1.412,3.331,4.877,4.877,0,0,0,3.409,1.38H40.935a4.881,4.881,0,0,0,3.409-1.379,4.635,4.635,0,0,0,0-6.662,4.877,4.877,0,0,0-3.409-1.38h0Zm3.214,4.71a3.105,3.105,0,0,1-.941,2.221,3.253,3.253,0,0,1-2.273.92H26.472a3.178,3.178,0,0,1-3.214-3.141,3.1,3.1,0,0,1,.941-2.22,3.253,3.253,0,0,1,2.273-.92H40.935a3.253,3.253,0,0,1,2.273.92,3.1,3.1,0,0,1,.941,2.22h0Zm-2.893-.784H37.48a0.807,0.807,0,0,0-.716.385,0.769,0.769,0,0,0,0,.8,0.808,0.808,0,0,0,.716.386h3.776a0.809,0.809,0,0,0,.716-0.386,0.77,0.77,0,0,0,0-.8,0.808,0.808,0,0,0-.716-0.385h0Zm0,0" transform="translate(-21.656 -222.125)"/>
</svg>
