<?xml version="1.0" standalone="no"?><!DOCTYPE svg PUBLIC "-//W3C//DTD SVG 1.1//EN" "http://www.w3.org/Graphics/SVG/1.1/DTD/svg11.dtd"><svg t="1714049180076" class="icon" viewBox="0 0 1024 1024" version="1.1" xmlns="http://www.w3.org/2000/svg" p-id="7942" xmlns:xlink="http://www.w3.org/1999/xlink" width="200" height="200"><path d="M928 160H96c-17.7 0-32 14.3-32 32v640c0 17.7 14.3 32 32 32h832c17.7 0 32-14.3 32-32V192c0-17.7-14.3-32-32-32z m-40 632H136V232h752v560z" p-id="7943"></path><path d="M610.3 476h123.4c1.3 0 2.3-3.6 2.3-8v-48c0-4.4-1-8-2.3-8H610.3c-1.3 0-2.3 3.6-2.3 8v48c0 4.4 1 8 2.3 8zM615.7 620h185.5c4.7 0 8.4-3.6 8.4-8v-48c0-4.4-3.8-8-8.4-8H615.7c-4.6 0-8.4 3.6-8.4 8v48c0 4.4 3.8 8 8.4 8zM224 673h43c4.4 0 8-3.6 8-8v-43.4c0-4.4-3.6-8-8-8h-43c-4.4 0-8 3.6-8 8V665c0 4.4 3.6 8 8 8zM224 567h43c4.4 0 8-3.6 8-8v-43.4c0-4.4-3.6-8-8-8h-43c-4.4 0-8 3.6-8 8V559c0 4.4 3.6 8 8 8zM224 461h43c4.4 0 8-3.6 8-8v-43.4c0-4.4-3.6-8-8-8h-43c-4.4 0-8 3.6-8 8V453c0 4.4 3.6 8 8 8zM224 355h43c4.4 0 8-3.6 8-8v-43.4c0-4.4-3.6-8-8-8h-43c-4.4 0-8 3.6-8 8V347c0 4.4 3.6 8 8 8z" p-id="7944"></path><path d="M610.3 324h123.4c1.3 0 2.3-3.6 2.3-8v-48c0-4.4-1-8-2.3-8H610.3c-1.3 0-2.3 3.6-2.3 8v48c0 4.4 1 8 2.3 8z" p-id="7945"></path></svg> 