<?xml version="1.0" standalone="no"?><!DOCTYPE svg PUBLIC "-//W3C//DTD SVG 1.1//EN" "http://www.w3.org/Graphics/SVG/1.1/DTD/svg11.dtd"><svg t="1714046139135" class="icon" viewBox="0 0 1024 1024" version="1.1" xmlns="http://www.w3.org/2000/svg" p-id="4690" xmlns:xlink="http://www.w3.org/1999/xlink" width="200" height="200"><path d="M512 42.667c259.2 0 469.333 210.133 469.333 469.333S771.2 981.333 512 981.333 42.667 771.2 42.667 512 252.8 42.667 512 42.667z m0 85.333C298.667 128 128 298.667 128 512s170.667 384 384 384 384-170.667 384-384S725.333 128 512 128z m-42.667 256a42.667 42.667 0 0 1 42.667 42.667v213.333a42.667 42.667 0 0 1-85.334 0V426.667a42.667 42.667 0 0 1 42.667-42.667z m42.667-128a42.667 42.667 0 1 1 0 85.333 42.667 42.667 0 0 1 0-85.333z" p-id="4691"></path></svg> 