<svg xmlns="http://www.w3.org/2000/svg" width="22.125" height="21.656" viewBox="0 0 22.125 21.656">
  <defs>
    <style>
      .cls-1 {
        fill: #fff;
        fill-rule: evenodd;
      }
    </style>
  </defs>
  <path id="数据转发" class="cls-1" d="M35.479,369.548v-2.591a3.832,3.832,0,0,1,3.82-3.836h2.729L40.911,362a0.831,0.831,0,0,1,1.172-1.177l2.533,2.543a0.834,0.834,0,0,1,0,1.177l-2.533,2.543a0.831,0.831,0,0,1-1.172-1.178l1.118-1.123H39.3a2.171,2.171,0,0,0-2.163,2.173v2.59a0.829,0.829,0,1,1-1.658,0v0Zm-10.414,1.1a2.39,2.39,0,0,1-2.354-2.419V351.409a2.389,2.389,0,0,1,2.354-2.416H40.036a2.389,2.389,0,0,1,2.354,2.416v7.068a0.829,0.829,0,1,1-1.658,0v-7.063a0.725,0.725,0,0,0-.7-0.752H25.065a0.725,0.725,0,0,0-.694.752v16.822a0.726,0.726,0,0,0,.694.753h8.062a0.833,0.833,0,0,1,0,1.665Zm2.546-5.548a0.833,0.833,0,0,1,0-1.665H32.4a0.833,0.833,0,0,1,0,1.665h-4.79Zm0-4.594a0.832,0.832,0,0,1,0-1.664h6.775a0.832,0.832,0,0,1,0,1.664H27.611Zm0-4.593a0.833,0.833,0,0,1,0-1.665h9.882a0.833,0.833,0,0,1,0,1.665H27.611Zm0,0" transform="translate(-22.719 -349)"/>
</svg>
