<?xml version="1.0" standalone="no"?><!DOCTYPE svg PUBLIC "-//W3C//DTD SVG 1.1//EN" "http://www.w3.org/Graphics/SVG/1.1/DTD/svg11.dtd"><svg t="1714049317323" class="icon" viewBox="0 0 1024 1024" version="1.1" xmlns="http://www.w3.org/2000/svg" p-id="8865" xmlns:xlink="http://www.w3.org/1999/xlink" width="200" height="200"><path d="M409.6 757.76a307.2 307.2 0 1 1 307.2-307.2 307.61152 307.61152 0 0 1-307.2 307.2z m0-558.08a250.88 250.88 0 1 0 250.88 250.88A251.16544 251.16544 0 0 0 409.6 199.68z" p-id="8866"></path><path d="M641.97376 631.53856a28.16 28.16 0 0 1-19.92704-8.2432 28.14976 28.14976 0 0 1 0-39.85408l209.31584-209.34656-209.31584-209.31584a28.16 28.16 0 0 1 39.85408-39.85408l229.24288 229.24288a28.14976 28.14976 0 0 1 0 39.85408l-229.24288 229.24288a28.12928 28.12928 0 0 1-19.92704 8.27392z" p-id="8867"></path><path d="M851.28256 421.84192h-236.15808a28.16 28.16 0 1 1 0-56.32h236.15808a28.16 28.16 0 0 1 0 56.32z" p-id="8868"></path></svg> 