<svg xmlns="http://www.w3.org/2000/svg" width="23.594" height="22.375" viewBox="0 0 23.594 22.375">
  <defs>
    <style>
      .cls-1 {
        fill: #fff;
        fill-rule: evenodd;
      }
    </style>
  </defs>
  <path id="日志管理" class="cls-1" d="M22.722,492.586a0.727,0.727,0,1,1,0-1.454H26.5a0.727,0.727,0,1,1,0,1.454H22.722Zm0-7.61a0.733,0.733,0,0,1-.634-0.363,0.723,0.723,0,0,1,0-.727,0.733,0.733,0,0,1,.634-0.363H26.5a0.733,0.733,0,0,1,.634.363,0.723,0.723,0,0,1,0,.727,0.733,0.733,0,0,1-.634.363H22.722Zm20.145,0.377a0.73,0.73,0,0,1-.732-0.727v-4.819a1.683,1.683,0,0,0-1.689-1.677H27.132a1.683,1.683,0,0,0-1.688,1.677v2.028a0.724,0.724,0,0,1-.366.629,0.736,0.736,0,0,1-.732,0,0.723,0.723,0,0,1-.366-0.629v-2.028a3.15,3.15,0,0,1,3.153-3.136H40.446a3.151,3.151,0,0,1,3.159,3.136v4.813a0.718,0.718,0,0,1-.212.516,0.774,0.774,0,0,1-.526.217h0Zm-18.155,5.31a0.729,0.729,0,0,1-.732-0.727v-3.769a0.726,0.726,0,0,1,.366-0.63,0.736,0.736,0,0,1,.732,0,0.726,0.726,0,0,1,.366.63v3.769a0.734,0.734,0,0,1-.732.727h0Zm2.421,8.365a3.146,3.146,0,0,1-3.153-3.136v-1.63a0.726,0.726,0,0,1,.366-0.63,0.736,0.736,0,0,1,.732,0,0.726,0.726,0,0,1,.366.63v1.63a1.682,1.682,0,0,0,1.688,1.676H40.446a1.682,1.682,0,0,0,1.689-1.676v-6.359a0.726,0.726,0,0,1,.366-0.63,0.736,0.736,0,0,1,.732,0,0.726,0.726,0,0,1,.366.63v6.359a3.118,3.118,0,0,1-.921,2.217,3.165,3.165,0,0,1-2.231.919H27.132Zm0,0,15.829-13.077a1.165,1.165,0,1,0,1.173,1.166,1.169,1.169,0,0,0-1.173-1.166h0Zm0,3.793a2.62,2.62,0,1,1,1.872-.768,2.633,2.633,0,0,1-1.872.768h0Zm-12.788,3.49a0.727,0.727,0,1,1,0-1.454h7.711a0.727,0.727,0,1,1,0,1.454H30.173Zm0-4.291a0.733,0.733,0,0,1-.634-0.363,0.723,0.723,0,0,1,0-.727,0.734,0.734,0,0,1,.634-0.364h7.711a0.733,0.733,0,0,1,.634.364,0.723,0.723,0,0,1,0,.727,0.732,0.732,0,0,1-.634.363H30.173Zm0-4.291a0.733,0.733,0,0,1-.634-0.363,0.723,0.723,0,0,1,0-.727,0.733,0.733,0,0,1,.634-0.363h7.711a0.732,0.732,0,0,1,.634.363,0.723,0.723,0,0,1,0,.727,0.732,0.732,0,0,1-.634.363H30.173Zm0,0" transform="translate(-22 -476.656)"/>
</svg>
