<?xml version="1.0" standalone="no"?><!DOCTYPE svg PUBLIC "-//W3C//DTD SVG 1.1//EN" "http://www.w3.org/Graphics/SVG/1.1/DTD/svg11.dtd"><svg t="1714049054594" class="icon" viewBox="0 0 1024 1024" version="1.1" xmlns="http://www.w3.org/2000/svg" p-id="6962" xmlns:xlink="http://www.w3.org/1999/xlink" width="200" height="200"><path d="M832 64H192c-17.7 0-32 14.3-32 32v832c0 17.7 14.3 32 32 32h640c17.7 0 32-14.3 32-32V96c0-17.7-14.3-32-32-32z m-40 824H232V193.1h560v694.9z" p-id="6963"></path><path d="M504 428H320c-4.4 0-8 3.6-8 8v88c0 4.4 3.6 8 8 8h184c4.4 0 8-3.6 8-8v-88c0-4.4-3.6-8-8-8zM312 544h384c4.4 0 8-3.6 8-8v-48c0-4.4-3.6-8-8-8H312c-4.4 0-8 3.6-8 8v48c0 4.4 3.6 8 8 8zM504 660H320c-4.4 0-8 3.6-8 8v88c0 4.4 3.6 8 8 8h184c4.4 0 8-3.6 8-8v-88c0-4.4-3.6-8-8-8zM312 776h384c4.4 0 8-3.6 8-8v-48c0-4.4-3.6-8-8-8H312c-4.4 0-8 3.6-8 8v48c0 4.4 3.6 8 8 8z" p-id="6964"></path></svg>