<svg xmlns="http://www.w3.org/2000/svg" width="22.25" height="21.25" viewBox="0 0 22.25 21.25">
  <defs>
    <style>
      .cls-1 {
        fill: #fff;
        fill-rule: evenodd;
      }
    </style>
  </defs>
  <path id="产品管理" class="cls-1" d="M25.124,170.168h4.784a2.31,2.31,0,0,1,1.562.678,2.015,2.015,0,0,1,.781,1.549v5.033a2.015,2.015,0,0,1-.781,1.549,2.229,2.229,0,0,1-1.562.58H25.124a2.309,2.309,0,0,1-1.66-.58,2.275,2.275,0,0,1-.683-1.549V172.4a2.275,2.275,0,0,1,.683-1.549,2.367,2.367,0,0,1,1.66-.678h0Zm4.784,1.549H25.124a0.7,0.7,0,0,0-.586.29,0.5,0.5,0,0,0-.2.388v5.033a0.731,0.731,0,0,0,.2.387,1.051,1.051,0,0,0,.586.194h4.784a1.394,1.394,0,0,0,.586-0.194,0.732,0.732,0,0,0,.2-0.387V172.4a0.5,0.5,0,0,0-.2-0.388,0.849,0.849,0,0,0-.586-0.29h0Zm0,0,5.272-1.549h4.784a2.363,2.363,0,0,1,1.66.678,1.919,1.919,0,0,1,.683,1.549v5.033a1.919,1.919,0,0,1-.683,1.549,2.309,2.309,0,0,1-1.66.58H35.18a2.228,2.228,0,0,1-1.562-.58,2.014,2.014,0,0,1-.781-1.549V172.4a2.015,2.015,0,0,1,.781-1.549,2.315,2.315,0,0,1,1.562-.678h0Zm4.784,1.549H35.18a0.849,0.849,0,0,0-.586.29,0.5,0.5,0,0,0-.2.388v5.033a0.731,0.731,0,0,0,.2.387,1.394,1.394,0,0,0,.586.194h4.784a0.828,0.828,0,0,0,.586-0.194,0.731,0.731,0,0,0,.2-0.387V172.4a0.5,0.5,0,0,0-.2-0.388,0.592,0.592,0,0,0-.586-0.29h0Zm0,0,0-12.971,3.905,2.517a2.231,2.231,0,0,1,1.074,1.452,1.979,1.979,0,0,1-.2,1.646l-2.733,4.259a2.319,2.319,0,0,1-1.465.871,2.726,2.726,0,0,1-1.757-.291l-4-2.613a2.5,2.5,0,0,1-1.074-1.355,2.247,2.247,0,0,1,.293-1.742l2.733-4.163a1.923,1.923,0,0,1,1.465-.968,2.368,2.368,0,0,1,1.757.387h0Zm3.124,3.872-4-2.613a1.246,1.246,0,0,0-.586-0.1,0.538,0.538,0,0,0-.488.29l-2.636,4.163a0.422,0.422,0,0,0-.1.484,0.646,0.646,0,0,0,.391.484l4,2.516a1.394,1.394,0,0,0,.586.194,1.362,1.362,0,0,0,.39-0.29l2.733-4.162a1.049,1.049,0,0,0,.1-0.485,0.971,0.971,0,0,0-.391-0.484h0Zm0,0-17.964-2.807h4.784a2.318,2.318,0,0,1,2.343,2.226v4.937a2.059,2.059,0,0,1-.781,1.645,2.225,2.225,0,0,1-1.562.581H25.124a2.169,2.169,0,0,1-2.343-2.226v-4.937a2.514,2.514,0,0,1,.683-1.645,2.309,2.309,0,0,1,1.66-.581h0Zm4.784,1.549H25.124a1.05,1.05,0,0,0-.586.194,1.014,1.014,0,0,0-.2.484v4.936a0.736,0.736,0,0,0,.2.484,1.051,1.051,0,0,0,.586.194h4.784a1.394,1.394,0,0,0,.586-0.194,0.736,0.736,0,0,0,.2-0.484v-4.936a1.013,1.013,0,0,0-.2-0.484,1.394,1.394,0,0,0-.586-0.194h0Zm0,0" transform="translate(-22.781 -158.312)"/>
</svg>
