<svg xmlns="http://www.w3.org/2000/svg" width="21.844" height="22.031" viewBox="0 0 21.844 22.031">
  <defs>
    <style>
      .cls-1 {
        fill: #fff;
        fill-rule: evenodd;
      }
    </style>
  </defs>
  <path id="参数设置" class="cls-1" d="M42.525,430.589a0.9,0.9,0,0,1,.919.881v2.516a0.919,0.919,0,0,1-1.837,0V431.47a0.9,0.9,0,0,1,.918-0.881h0Zm0-7.151a2.518,2.518,0,1,1-2.624,2.516,2.572,2.572,0,0,1,2.624-2.516h0Zm0,1.509a1.06,1.06,0,0,0-.909.5,0.971,0.971,0,0,0,0,1.007,1.06,1.06,0,0,0,.909.5,1.007,1.007,0,1,0,0-2.013h0Zm0-12.116a0.9,0.9,0,0,1,.919.881v7.045a0.919,0.919,0,0,1-1.837,0v-7.045a0.9,0.9,0,0,1,.918-0.881h0Zm-8.287,15.242a0.9,0.9,0,0,1,.918.881v5.032a0.919,0.919,0,0,1-1.837,0v-5.032a0.9,0.9,0,0,1,.919-0.881h0Zm0-7.152a2.519,2.519,0,1,1-2.625,2.517,2.572,2.572,0,0,1,2.625-2.517h0Zm0,1.51a1.059,1.059,0,0,0-.909.5,0.971,0.971,0,0,0,0,1.007,1.059,1.059,0,0,0,.909.5,1.007,1.007,0,1,0,0-2.013h0Zm0-9.6a0.9,0.9,0,0,1,.918.881v4.026a0.919,0.919,0,0,1-1.837,0v-4.026a0.9,0.9,0,0,1,.919-0.881h0Zm-8.287,12.223a0.9,0.9,0,0,1,.918.88v8.052a0.919,0.919,0,0,1-1.837,0v-8.052a0.9,0.9,0,0,1,.919-0.88h0Zm0-12.223a0.9,0.9,0,0,1,.918.881v2.013a0.919,0.919,0,0,1-1.837,0v-2.013a0.9,0.9,0,0,1,.919-0.881h0Zm0,5.071a2.518,2.518,0,1,1-2.625,2.516,2.572,2.572,0,0,1,2.625-2.516h0Zm0,1.51a1.058,1.058,0,0,0-.909.5,0.97,0.97,0,0,0,0,1.006,1.059,1.059,0,0,0,.909.5,1.007,1.007,0,1,0,0-2.013h0Zm0,0" transform="translate(-23.313 -412.844)"/>
</svg>
