<svg xmlns="http://www.w3.org/2000/svg" width="22.313" height="22.188" viewBox="0 0 22.313 22.188">
  <defs>
    <style>
      .cls-1 {
        fill: #fff;
        fill-rule: evenodd;
      }
    </style>
  </defs>
  <path id="系统管理" class="cls-1" d="M43.532,545.728v-2.266a0.824,0.824,0,0,0-.826-0.822H25.354a0.824,0.824,0,0,0-.826.822v2.266h19Zm-19,1.644v13.351a0.824,0.824,0,0,0,.826.822H42.706a0.824,0.824,0,0,0,.826-0.822V558.5a0.826,0.826,0,0,1,1.653,0v2.225a2.472,2.472,0,0,1-2.479,2.465H25.354a2.472,2.472,0,0,1-2.479-2.465V543.462A2.472,2.472,0,0,1,25.354,541H42.706a2.472,2.472,0,0,1,2.479,2.466v3.088a0.824,0.824,0,0,1-.826.822H24.527Zm0,0,12.08,2.385a0.826,0.826,0,0,1,1.553.561l-2.826,7.4a0.826,0.826,0,0,1-1.553-.561Zm3.831,0.83a0.821,0.821,0,0,1,.443-1.354,0.83,0.83,0,0,1,.786.254l3.265,3.613a0.819,0.819,0,0,1,0,1.1l-3.265,3.612a0.829,0.829,0,0,1-1.167.062,0.819,0.819,0,0,1-.062-1.161l2.769-3.062-2.768-3.063h0Zm-8.726,0a0.819,0.819,0,0,0-.061-1.161,0.831,0.831,0,0,0-1.167.061L27.218,553.1a0.819,0.819,0,0,0,0,1.1l3.265,3.612a0.829,0.829,0,0,0,1.157.051,0.819,0.819,0,0,0,.072-1.15l-2.768-3.062Zm0,0" transform="translate(-22.875 -541)"/>
</svg>
