<?xml version="1.0" standalone="no"?><!DOCTYPE svg PUBLIC "-//W3C//DTD SVG 1.1//EN" "http://www.w3.org/Graphics/SVG/1.1/DTD/svg11.dtd"><svg t="1714049504559" class="icon" viewBox="0 0 1024 1024" version="1.1" xmlns="http://www.w3.org/2000/svg" p-id="11964" xmlns:xlink="http://www.w3.org/1999/xlink" width="200" height="200"><path d="M865.3 244.7c-0.3-0.3-61.1 59.8-182.1 180.6l-84.9-84.9 180.9-180.9c-95.2-57.3-217.5-42.6-296.8 36.7-62.3 62.3-85.6 152.2-63.4 235.5l-172 171.9c-24 23.6-38.3 56.1-38.3 91.9 0 71.7 58.3 130 130 130 35.8 0 68.2-14.3 91.9-38.3l171.8-172c83.4 22.2 173.2-1.1 235.5-63.4 79.4-79.3 94.1-201.6 36.8-296.8-0.3-0.3-0.4-0.4-0.4-0.4z m-406.7 344.9c-5.6 5.6-13.1 8.7-21.2 8.7s-15.6-3.1-21.2-8.7c-11.7-11.7-11.7-30.6 0-42.4 11.7-11.7 30.6-11.7 42.4 0 11.7 11.7 11.7 30.7 0 42.4z" p-id="11965"></path><path d="M705.3 255.4l-84.9 84.9 34.4 34.4c25.3-20 45.9-39.5 82.9-75.6l2.2-2.1-34.6-41.6z" p-id="11966"></path><path d="M307.9 536.7l97.6-97.6c-25.4-7.1-49.4-19.2-70.7-36.5l-60.4 60.5c-0.2 0.1-0.2 0.1-0.2 0.1-21.2 21.1-54.6 51.5-92.3 73.2-40.6 23.3-76.8 36.1-104.9 37.3 14.6 11.4 31.8 19.3 51.1 22.1 36.9 5.4 81.9-5.3 127.8-30.6 42.5-23.4 69.9-51.5 92.3-73.2 0.1-0.1 0.2-0.2 0.3-0.3z" p-id="11967"></path><path d="M122.3 628.5c-9.1 0-18.3-1.7-27.2-5.1-11.7-4.5-22.7-12-31.4-20.6L61.3 600l-2.4-3c-4.4-5.6-8.1-11.6-11.1-18 36.5-4.1 74.1-22.1 119.2-48.9 39.1-23.3 73.9-55.4 96.2-77.6l60.3-60.3c-22.5-34.9-29.8-78.5-18.2-119.7-4 1.7-7.8 3.7-11.6 6-29.6 17.9-49.9 49.6-52.6 84.7l-0.3 4-3.2 2.6c-0.9 0.7-22.2 18.2-47.5 45.9-14 15.3-28 32.8-39.4 51.7-12.1 20.1-20.4 41-24.8 62.2l-0.5 2.2-2.2 0.3c-45.9 5.9-82.9 44.5-87.1 90.8l-0.2 2.2 1.4 1.7c13.2 16.8 31.9 28.5 52.6 32.9 12.4 2.6 25.1 2.6 37.4-0.1l2.7-0.6 2.3 1.5c38.3 25.2 87.8 22.5 123.4-5.9l0.8-0.6 173.2-173.2 54.7 54.7-173.3 173.3c-34.5 35.3-81 52.9-128.3 49.2z" p-id="11968"></path></svg> 