<svg xmlns="http://www.w3.org/2000/svg" width="23.125" height="22.844" viewBox="0 0 23.125 22.844">
  <defs>
    <style>
      .cls-1 {
        fill: #fff;
        fill-rule: evenodd;
      }
    </style>
  </defs>
  <path id="会话管理" class="cls-1" d="M34.773,304.441a9.15,9.15,0,0,1-2.457-.289l-2.886,1.718a0.333,0.333,0,0,1-.336,0,0.323,0.323,0,0,1-.162-0.29l0.06-2.728a8.463,8.463,0,0,1-4.336-7.075c0-4.764,4.553-8.663,10.117-8.663s10.117,3.9,10.117,8.663-4.553,8.663-10.117,8.663m0-18.77c-6.359,0-11.562,4.548-11.562,10.107a9.52,9.52,0,0,0,4.336,7.869v4.538a0.329,0.329,0,0,0,.5.28l4.557-2.8a10.994,10.994,0,0,0,2.168.217c6.359,0,11.562-4.548,11.562-10.107,0-5.629-5.2-10.107-11.562-10.107m5.781,8.664A1.444,1.444,0,1,0,42,295.778a1.449,1.449,0,0,0-1.445-1.443m-5.781,0a1.444,1.444,0,1,0,1.445,1.443,1.449,1.449,0,0,0-1.445-1.443m-5.781,0a1.444,1.444,0,1,0,1.445,1.443,1.449,1.449,0,0,0-1.445-1.443" transform="translate(-23.219 -285.656)"/>
</svg>
